#N canvas -8 -8 1304 725 10;
#X obj 250 116 hradio 15 1 0 10 empty empty empty 0 -8 0 10 -262144
-1 -1 8;
#X msg 250 151 open \$1;
#X obj 250 179 hidin;
#X obj 221 116 tgl 15 0 empty empty empty 17 7 0 10 -4034 -1 -1 0 1
;
#X floatatom 259 204 5 0 0 0 - - -;
#X floatatom 20 978 5 0 0 0 - - -;
#X floatatom 101 959 5 0 0 0 - - -;
#X floatatom 156 856 5 0 0 0 - - -;
#X floatatom 263 850 5 0 0 0 - - -;
#X floatatom 316 541 5 0 0 0 - - -;
#X floatatom 331 496 5 0 0 0 - - -;
#X floatatom 348 398 5 0 0 0 - - -;
#X floatatom 658 381 5 0 0 0 - - -;
#X obj 197 211 print;
#X obj 658 402 change;
#X floatatom 324 136 5 0 0 0 - - -;
#X obj 334 521 hsl 255 15 0 255 0 0 empty empty empty -2 -8 0 10 -262144
-1 -1 12750 1;
#X obj 316 573 vsl 15 255 0 255 0 0 empty empty empty 0 -9 0 10 -262144
-1 -1 12750 1;
#X obj 348 427 knob 50 50 0 8 0 0 empty empty empty 0 -8 0 8 -4034
-1 -1 4900 1;
#X obj 143 113 tgl 25 0 empty empty DSP 3 12 1 9 -24198 -1 -1 0 1;
#X msg 143 145 \; pd dsp \$1;
#X obj 224 719 vsl 15 255 0 255 0 0 empty empty empty 0 -9 0 10 -262144
-1 -1 12750 1;
#X obj 266 872 hsl 255 15 0 255 0 0 empty empty empty -2 -8 0 10 -262144
-1 -1 12750 1;
#X obj 104 983 hsl 255 15 0 255 0 0 empty empty empty -2 -8 0 10 -262144
-1 -1 12750 1;
#X obj 343 691 osc~ 70;
#X obj 395 692 osc~ 80;
#X obj 410 666 dac~ 1 2;
#X obj 294 891 osc~ 55;
#X obj 347 892 osc~ 65;
#X obj 387 381 osc~ 75;
#X obj 450 383 osc~ 85;
#X obj 410 642 equal_power_pan~;
#X obj 344 792 dac~ 1 2;
#X obj 343 769 equal_power_pan~;
#X obj 548 910 dac~ 1 2;
#X obj 547 887 equal_power_pan~;
#X obj 409 988 dac~ 1 2;
#X obj 408 965 equal_power_pan~;
#X obj 447 502 dac~ 1 2;
#X obj 446 476 equal_power_pan~;
#X obj 103 1071 equal_power_pan~;
#X obj 152 1004 osc~ 47;
#X obj 102 1003 osc~ 45;
#X obj 416 540 osc~ 56;
#X obj 500 383 osc~ 77.5;
#X obj 567 382 osc~ 82.5;
#X obj 471 540 osc~ 54;
#X obj 522 540 osc~ 53;
#X obj 488 812 osc~ 92;
#X obj 546 812 osc~ 93;
#X obj 611 814 osc~ 94;
#X obj 423 810 osc~ 91;
#X obj 665 815 osc~ 95;
#X obj 721 815 osc~ 96;
#X obj 448 692 osc~ 72.5;
#X obj 515 694 osc~ 75;
#X obj 575 693 osc~ 77.5;
#X obj 398 891 osc~ 57.5;
#X obj 465 891 osc~ 60;
#X obj 206 1003 osc~ 48;
#X obj 256 1004 osc~ 49;
#X obj 308 1004 osc~ 50;
#X obj 358 1005 osc~ 51;
#X obj 352 541 osc~ 52.5;
#X obj 409 942 *~ 0.09;
#X obj 102 1047 *~ 0.07;
#X obj 343 743 *~ 0.07;
#X obj 546 863 *~ 0.05;
#X obj 411 619 *~ 0.13;
#X obj 104 1094 dac~ 1 2;
#N canvas 0 1 806 692 META 0;
#N canvas 876 177 375 255 startup 0;
#X obj 22 24 loadbang;
#X obj 22 48 bng 15 250 50 0 empty empty empty 0 -6 0 8 -262144 -1
-1;
#X obj 22 67 f \$0;
#X text 35 195 This subpatch loads initial;
#X text 31 219 values in number boxes.;
#X msg 22 91 \; \$1-pole 80;
#X connect 0 0 1 0;
#X connect 1 0 2 0;
#X connect 2 0 5 0;
#X restore 115 236 pd startup;
#N canvas 0 0 660 424 chord 0;
#X obj 87 97 -~ 0.5;
#X obj 87 146 clip~ -0.5 0.5;
#X obj 87 169 cos~;
#X obj 91 252 hip~ 5;
#X obj 91 315 outlet~;
#X obj 221 97 -~ 0.5;
#X obj 221 146 clip~ -0.5 0.5;
#X obj 221 169 cos~;
#X obj 356 100 -~ 0.5;
#X obj 356 149 clip~ -0.5 0.5;
#X obj 356 172 cos~;
#X obj 491 100 -~ 0.5;
#X obj 491 149 clip~ -0.5 0.5;
#X obj 491 172 cos~;
#X text 147 32 test sound for phaser;
#X obj 221 122 *~ 0.1;
#X obj 87 122 *~ 0.17;
#X obj 207 266 -~ 0.5;
#X obj 207 315 clip~ -0.5 0.5;
#X obj 207 338 cos~;
#X obj 341 266 -~ 0.5;
#X obj 341 315 clip~ -0.5 0.5;
#X obj 341 338 cos~;
#X obj 476 269 -~ 0.5;
#X obj 476 318 clip~ -0.5 0.5;
#X obj 476 341 cos~;
#X obj 611 269 -~ 0.5;
#X obj 611 318 clip~ -0.5 0.5;
#X obj 611 341 cos~;
#X obj 91 285 *~ 0.75;
#X obj 207 243 phasor~ 78;
#X obj 341 243 phasor~ 88;
#X obj 476 246 phasor~ 98;
#X obj 611 246 phasor~ 68;
#X obj 611 294 *~ 0.3;
#X obj 476 294 *~ 0.3;
#X obj 341 291 *~ 0.3;
#X obj 207 291 *~ 0.5;
#X obj 87 74 phasor~ 178;
#X obj 221 74 phasor~ 188;
#X obj 356 77 phasor~ 198;
#X obj 491 77 phasor~ 168;
#X obj 491 125 *~ 0.19;
#X obj 356 125 *~ 0.19;
#X connect 0 0 16 0;
#X connect 1 0 2 0;
#X connect 2 0 3 0;
#X connect 3 0 29 0;
#X connect 5 0 15 0;
#X connect 6 0 7 0;
#X connect 7 0 3 0;
#X connect 8 0 43 0;
#X connect 9 0 10 0;
#X connect 10 0 3 0;
#X connect 11 0 42 0;
#X connect 12 0 13 0;
#X connect 13 0 3 0;
#X connect 15 0 6 0;
#X connect 16 0 1 0;
#X connect 17 0 37 0;
#X connect 18 0 19 0;
#X connect 19 0 3 0;
#X connect 20 0 36 0;
#X connect 21 0 22 0;
#X connect 22 0 3 0;
#X connect 23 0 35 0;
#X connect 24 0 25 0;
#X connect 25 0 3 0;
#X connect 26 0 34 0;
#X connect 27 0 28 0;
#X connect 28 0 3 0;
#X connect 29 0 4 0;
#X connect 30 0 17 0;
#X connect 31 0 20 0;
#X connect 32 0 23 0;
#X connect 33 0 26 0;
#X connect 34 0 27 0;
#X connect 35 0 24 0;
#X connect 36 0 21 0;
#X connect 37 0 18 0;
#X connect 38 0 0 0;
#X connect 39 0 5 0;
#X connect 40 0 8 0;
#X connect 41 0 11 0;
#X connect 42 0 12 0;
#X connect 43 0 9 0;
#X restore 26 10 pd chord;
#X obj 25 273 output~;
#X obj 48 64 rpole~;
#X obj 48 39 rzero_rev~;
#X obj 48 113 rpole~;
#X obj 48 88 rzero_rev~;
#X obj 48 161 rpole~;
#X obj 48 136 rzero_rev~;
#X obj 48 210 rpole~;
#X obj 48 185 rzero_rev~;
#X obj 25 240 +~;
#X obj 203 188 expr~ 1 - 0.03 - 0.6*abs($v1-0.5)*abs($v1-0.5);
#X obj 254 241 osc~ 46.572;
#X obj 254 295 +~;
#X obj 351 293 +~;
#X obj 254 605 output~;
#X obj 255 332 +~;
#X obj 255 359 +~;
#X obj 255 384 +~;
#X obj 255 411 +~;
#X obj 254 433 +~;
#X obj 254 460 +~;
#X obj 254 485 +~;
#X obj 254 512 +~;
#X obj 400 344 +~;
#X obj 495 356 +~;
#X obj 408 440 +~;
#X obj 503 452 +~;
#X obj 414 529 +~;
#X obj 509 541 +~;
#X obj 448 618 +~;
#X obj 543 630 +~;
#X obj 255 536 +~;
#X obj 269 264 osc~ 47;
#X obj 350 240 osc~ 60.544;
#X obj 367 263 osc~ 61;
#X obj 400 290 osc~ 78.708;
#X obj 415 313 osc~ 79;
#X obj 494 303 osc~ 102.321;
#X obj 511 326 osc~ 103;
#X obj 408 386 osc~ 133.017;
#X obj 423 409 osc~ 134;
#X obj 502 399 osc~ 172.922;
#X obj 519 422 osc~ 173;
#X obj 414 475 osc~ 224.798;
#X obj 429 498 osc~ 225;
#X obj 508 488 osc~ 292.238;
#X obj 525 511 osc~ 293;
#X obj 448 564 osc~ 379.91;
#X obj 463 587 osc~ 380;
#X obj 542 577 osc~ 493.883;
#X obj 559 600 osc~ 494;
#X obj 203 156 phasor~ 0.5;
#X connect 1 0 4 0;
#X connect 1 0 11 0;
#X connect 3 0 6 0;
#X connect 4 0 3 0;
#X connect 5 0 8 0;
#X connect 6 0 5 0;
#X connect 7 0 10 0;
#X connect 8 0 7 0;
#X connect 9 0 11 1;
#X connect 10 0 9 0;
#X connect 11 0 2 0;
#X connect 11 0 2 1;
#X connect 12 0 4 1;
#X connect 12 0 3 1;
#X connect 12 0 6 1;
#X connect 12 0 5 1;
#X connect 12 0 8 1;
#X connect 12 0 7 1;
#X connect 12 0 10 1;
#X connect 12 0 9 1;
#X connect 13 0 14 0;
#X connect 14 0 17 0;
#X connect 15 0 17 1;
#X connect 17 0 18 0;
#X connect 18 0 19 0;
#X connect 19 0 20 0;
#X connect 20 0 21 0;
#X connect 21 0 22 0;
#X connect 22 0 23 0;
#X connect 23 0 24 0;
#X connect 24 0 33 0;
#X connect 25 0 18 1;
#X connect 26 0 19 1;
#X connect 27 0 20 1;
#X connect 28 0 21 1;
#X connect 29 0 22 1;
#X connect 30 0 23 1;
#X connect 31 0 24 1;
#X connect 32 0 33 1;
#X connect 33 0 16 0;
#X connect 33 0 16 1;
#X connect 34 0 14 1;
#X connect 35 0 15 0;
#X connect 36 0 15 1;
#X connect 37 0 25 0;
#X connect 38 0 25 1;
#X connect 39 0 26 0;
#X connect 40 0 26 1;
#X connect 41 0 27 0;
#X connect 42 0 27 1;
#X connect 43 0 28 0;
#X connect 44 0 28 1;
#X connect 45 0 29 0;
#X connect 46 0 29 1;
#X connect 47 0 30 0;
#X connect 48 0 30 1;
#X connect 49 0 31 0;
#X connect 50 0 31 1;
#X connect 51 0 32 0;
#X connect 52 0 32 1;
#X connect 53 0 12 0;
#X restore 80 116 pd META;
#X obj 446 454 *~ 0.1;
#X obj 447 433 phasor~ 0.25;
#X obj 411 597 phasor~ 0.25;
#X obj 343 723 phasor~ 0.5;
#X obj 545 841 phasor~ 0.25;
#X obj 408 920 phasor~ 0.3;
#X obj 102 1024 phasor~ 0.5;
#X obj 658 448 bng 15 250 50 0 empty empty empty 17 7 0 10 -262144
-1 -1;
#X obj 683 448 bng 15 250 50 0 empty empty empty 17 7 0 10 -262144
-1 -1;
#X obj 658 425 sel 0 128 255;
#X obj 708 447 bng 15 250 50 0 empty empty empty 17 7 0 10 -262144
-1 -1;
#X obj 733 448 bng 15 250 50 0 empty empty empty 17 7 0 10 -262144
-1 -1;
#X obj 20 1000 change;
#X obj 20 1022 sel 1;
#X obj 20 1044 bng 15 250 50 0 empty empty empty 17 7 0 10 -262144
-1 -1;
#X obj 47 1044 bng 15 250 50 0 empty empty empty 17 7 0 10 -262144
-1 -1;
#X floatatom 769 382 5 0 0 0 - - -;
#X obj 769 403 change;
#X obj 769 449 bng 15 250 50 0 empty empty empty 17 7 0 10 -262144
-1 -1;
#X obj 794 449 bng 15 250 50 0 empty empty empty 17 7 0 10 -262144
-1 -1;
#X obj 769 426 sel 0 128 255;
#X obj 819 448 bng 15 250 50 0 empty empty empty 17 7 0 10 -262144
-1 -1;
#X obj 844 449 bng 15 250 50 0 empty empty empty 17 7 0 10 -262144
-1 -1;
#X floatatom 870 381 5 0 0 0 - - -;
#X obj 870 402 change;
#X obj 870 448 bng 15 250 50 0 empty empty empty 17 7 0 10 -262144
-1 -1;
#X obj 895 448 bng 15 250 50 0 empty empty empty 17 7 0 10 -262144
-1 -1;
#X obj 870 425 sel 0 128 255;
#X obj 920 447 bng 15 250 50 0 empty empty empty 17 7 0 10 -262144
-1 -1;
#X obj 945 448 bng 15 250 50 0 empty empty empty 17 7 0 10 -262144
-1 -1;
#X floatatom 981 382 5 0 0 0 - - -;
#X obj 981 403 change;
#X obj 981 449 bng 15 250 50 0 empty empty empty 17 7 0 10 -262144
-1 -1;
#X obj 1006 449 bng 15 250 50 0 empty empty empty 17 7 0 10 -262144
-1 -1;
#X obj 981 426 sel 0 128 255;
#X obj 1031 448 bng 15 250 50 0 empty empty empty 17 7 0 10 -262144
-1 -1;
#X obj 1056 449 bng 15 250 50 0 empty empty empty 17 7 0 10 -262144
-1 -1;
#X floatatom 1087 383 5 0 0 0 - - -;
#X obj 1087 404 change;
#X obj 1087 450 bng 15 250 50 0 empty empty empty 17 7 0 10 -262144
-1 -1;
#X obj 1112 450 bng 15 250 50 0 empty empty empty 17 7 0 10 -262144
-1 -1;
#X obj 1087 427 sel 0 128 255;
#X obj 1137 449 bng 15 250 50 0 empty empty empty 17 7 0 10 -262144
-1 -1;
#X obj 1162 450 bng 15 250 50 0 empty empty empty 17 7 0 10 -262144
-1 -1;
#X floatatom 1198 384 5 0 0 0 - - -;
#X obj 1198 405 change;
#X obj 1198 451 bng 15 250 50 0 empty empty empty 17 7 0 10 -262144
-1 -1;
#X obj 1217 451 bng 15 250 50 0 empty empty empty 17 7 0 10 -262144
-1 -1;
#X obj 1236 451 bng 15 250 50 0 empty empty empty 17 7 0 10 -262144
-1 -1;
#X obj 1198 428 sel 0 7 15;
#X obj 1255 451 bng 15 250 50 0 empty empty empty 17 7 0 10 -262144
-1 -1;
#X obj 451 115 route abs key;
#X obj 488 139 route btn_0 btn_1 btn_2 btn_3;
#X obj 547 115 print;
#X obj 250 232 route 0 1 2 3 4 5 6 7 8 9 10 11 12 13 14 15 16;
#X floatatom 1441 379 5 0 0 0 - - -;
#X floatatom 1288 383 5 0 0 0 - - -;
#X floatatom 488 163 5 0 0 0 - - -;
#X floatatom 530 163 5 0 0 0 - - -;
#X floatatom 573 164 5 0 0 0 - - -;
#X floatatom 616 164 5 0 0 0 - - -;
#X obj 1288 405 bng 15 250 50 0 empty empty empty 17 7 0 10 -262144
-1 -1;
#X obj 1441 401 bng 15 250 50 0 empty empty empty 17 7 0 10 -262144
-1 -1;
#X obj 623 536 osc~ 75;
#X obj 686 538 osc~ 85;
#X obj 736 538 osc~ 77.5;
#X obj 803 537 osc~ 82.5;
#X obj 679 643 dac~ 1 2;
#X obj 682 609 *~ 0.01;
#X obj 683 588 phasor~ 0.015;
#X obj 1288 426 metro 16000;
#X obj 1441 421 metro 16000;
#X obj 1288 448 random 10;
#X obj 1441 444 random 10;
#X obj 1288 495 sel 0 1 2 3 4 5 6 7 8 9;
#X obj 1441 494 sel 0 1 2 3 4 5 6 7 8 9;
#X obj 1293 580 readsf~ 10;
#X obj 1293 605 dac~ 1 2;
#X obj 1449 580 readsf~ 10;
#X obj 1449 605 dac~ 1 2;
#X msg 1269 531 open a1.wav \, 1;
#X floatatom 1441 470 5 0 0 0 - - -;
#X floatatom 1288 471 5 0 0 0 - - -;
#X connect 0 0 1 0;
#X connect 0 0 15 0;
#X connect 1 0 2 0;
#X connect 2 0 4 0;
#X connect 2 0 13 0;
#X connect 2 0 125 0;
#X connect 3 0 2 0;
#X connect 5 0 83 0;
#X connect 6 0 23 0;
#X connect 7 0 21 0;
#X connect 8 0 22 0;
#X connect 9 0 17 0;
#X connect 10 0 16 0;
#X connect 11 0 18 0;
#X connect 12 0 14 0;
#X connect 14 0 80 0;
#X connect 16 0 31 1;
#X connect 17 0 33 1;
#X connect 18 0 39 1;
#X connect 19 0 20 0;
#X connect 21 0 37 1;
#X connect 22 0 35 1;
#X connect 23 0 40 1;
#X connect 24 0 74 0;
#X connect 25 0 74 0;
#X connect 27 0 76 0;
#X connect 28 0 76 0;
#X connect 29 0 72 0;
#X connect 30 0 72 0;
#X connect 31 0 26 0;
#X connect 31 1 26 1;
#X connect 33 0 32 0;
#X connect 33 1 32 1;
#X connect 35 0 34 0;
#X connect 35 1 34 1;
#X connect 37 0 36 0;
#X connect 37 1 36 1;
#X connect 39 0 38 0;
#X connect 39 1 38 1;
#X connect 40 0 69 0;
#X connect 40 1 69 1;
#X connect 41 0 77 0;
#X connect 42 0 77 0;
#X connect 43 0 73 0;
#X connect 44 0 72 0;
#X connect 45 0 72 0;
#X connect 46 0 73 0;
#X connect 47 0 73 0;
#X connect 48 0 75 0;
#X connect 49 0 75 0;
#X connect 50 0 75 0;
#X connect 51 0 75 0;
#X connect 52 0 75 0;
#X connect 53 0 75 0;
#X connect 54 0 74 0;
#X connect 55 0 74 0;
#X connect 56 0 74 0;
#X connect 57 0 76 0;
#X connect 58 0 76 0;
#X connect 59 0 77 0;
#X connect 60 0 77 0;
#X connect 61 0 77 0;
#X connect 62 0 77 0;
#X connect 63 0 73 0;
#X connect 64 0 37 0;
#X connect 65 0 40 0;
#X connect 66 0 33 0;
#X connect 67 0 35 0;
#X connect 68 0 31 0;
#X connect 71 0 39 0;
#X connect 72 0 71 0;
#X connect 73 0 68 0;
#X connect 74 0 66 0;
#X connect 75 0 67 0;
#X connect 76 0 64 0;
#X connect 77 0 65 0;
#X connect 80 0 78 0;
#X connect 80 1 79 0;
#X connect 80 2 81 0;
#X connect 80 3 82 0;
#X connect 83 0 84 0;
#X connect 84 0 85 0;
#X connect 84 1 86 0;
#X connect 87 0 88 0;
#X connect 88 0 91 0;
#X connect 91 0 89 0;
#X connect 91 1 90 0;
#X connect 91 2 92 0;
#X connect 91 3 93 0;
#X connect 94 0 95 0;
#X connect 95 0 98 0;
#X connect 98 0 96 0;
#X connect 98 1 97 0;
#X connect 98 2 99 0;
#X connect 98 3 100 0;
#X connect 101 0 102 0;
#X connect 102 0 105 0;
#X connect 105 0 103 0;
#X connect 105 1 104 0;
#X connect 105 2 106 0;
#X connect 105 3 107 0;
#X connect 108 0 109 0;
#X connect 109 0 112 0;
#X connect 112 0 110 0;
#X connect 112 1 111 0;
#X connect 112 2 113 0;
#X connect 112 3 114 0;
#X connect 115 0 116 0;
#X connect 116 0 120 0;
#X connect 120 0 117 0;
#X connect 120 1 118 0;
#X connect 120 2 119 0;
#X connect 120 3 121 0;
#X connect 122 0 123 0;
#X connect 122 1 123 0;
#X connect 122 1 124 0;
#X connect 123 0 128 0;
#X connect 123 1 129 0;
#X connect 123 2 130 0;
#X connect 123 3 131 0;
#X connect 125 0 5 0;
#X connect 125 1 6 0;
#X connect 125 1 12 0;
#X connect 125 2 7 0;
#X connect 125 2 87 0;
#X connect 125 3 8 0;
#X connect 125 3 94 0;
#X connect 125 4 9 0;
#X connect 125 4 101 0;
#X connect 125 5 10 0;
#X connect 125 5 108 0;
#X connect 125 6 11 0;
#X connect 125 6 115 0;
#X connect 125 15 127 0;
#X connect 125 16 126 0;
#X connect 126 0 133 0;
#X connect 127 0 132 0;
#X connect 132 0 141 0;
#X connect 133 0 142 0;
#X connect 134 0 140 0;
#X connect 135 0 140 0;
#X connect 136 0 140 0;
#X connect 137 0 140 0;
#X connect 139 0 138 0;
#X connect 139 0 138 1;
#X connect 140 0 139 0;
#X connect 141 0 143 0;
#X connect 142 0 144 0;
#X connect 143 0 153 0;
#X connect 144 0 152 0;
#X connect 145 0 151 0;
#X connect 147 0 148 0;
#X connect 147 0 148 1;
#X connect 147 10 148 1;
#X connect 149 0 150 0;
#X connect 149 0 150 1;
#X connect 149 10 150 1;
#X connect 151 0 147 0;
#X connect 152 0 146 0;
#X connect 153 0 145 0;
